<svg width="725" height="696" viewBox="0 0 725 696" fill="none" xmlns="http://www.w3.org/2000/svg">
<path fill-rule="evenodd" clip-rule="evenodd" d="M4.5 0C2.01472 0 0 2.01472 0 4.5V691C0 693.485 2.01472 695.5 4.5 695.5H94.6849C95.9422 695.5 97.1423 694.974 97.9943 694.049L282.778 493.497C284.335 491.807 284.369 489.215 282.855 487.485L223.875 420.079C222.088 418.037 218.914 418.029 217.117 420.062L102.624 549.571C101.709 550.606 100 549.958 100 548.577V128.681C100 127.284 101.741 126.646 102.644 127.712L347.629 416.842C349.395 418.926 352.593 418.969 354.415 416.935L720.638 8.00211C723.234 5.10377 721.177 0.5 717.286 0.5H572.925C571.572 0.5 570.292 1.10838 569.437 2.15675L352.189 268.667C351.584 269.409 350.45 269.403 349.853 268.655L137.074 1.69521C136.22 0.623971 134.925 0 133.555 0H4.5ZM3 4.5C3 3.67157 3.67157 3 4.5 3H133.555C134.011 3 134.443 3.20799 134.728 3.56506L347.507 270.525C349.296 272.769 352.701 272.788 354.514 270.563L571.762 4.05225C572.047 3.70279 572.474 3.5 572.925 3.5H717.286C718.583 3.5 719.269 5.03459 718.404 6.00071L352.18 414.934C351.573 415.612 350.507 415.597 349.918 414.903L104.933 125.772C102.224 122.575 97 124.491 97 128.681V548.577C97 552.721 102.127 554.662 104.871 551.558L219.365 422.049C219.964 421.371 221.022 421.374 221.617 422.055L280.597 489.46C281.102 490.037 281.091 490.901 280.572 491.465L95.788 692.016C95.504 692.325 95.104 692.5 94.6849 692.5H4.5C3.67157 692.5 3 691.828 3 691V4.5Z" fill="black"/>
<path fill-rule="evenodd" clip-rule="evenodd" d="M725 163.381C725 159.156 719.703 157.26 717.022 160.525L283.367 688.644C280.956 691.581 283.045 696 286.845 696H394.104C395.432 696 396.691 695.414 397.547 694.398L620.383 429.719C621.282 428.651 623.025 429.284 623.03 430.68L623.989 691.017C623.998 693.495 626.01 695.5 628.489 695.5H720.5C722.985 695.5 725 693.485 725 691V163.381ZM719.341 162.429C720.234 161.341 722 161.972 722 163.381V691C722 691.828 721.328 692.5 720.5 692.5H628.489C627.663 692.5 626.992 691.832 626.989 691.006L626.03 430.669C626.015 426.48 620.786 424.583 618.088 427.787L395.252 692.466C394.967 692.805 394.547 693 394.104 693H286.845C285.579 693 284.882 691.527 285.686 690.548L719.341 162.429Z" fill="black"/>
</svg>
