<svg width="24" height="24" viewBox="0 0 24 24" fill="none" xmlns="http://www.w3.org/2000/svg">
<g clip-path="url(#clip0_1410_22)">
<path d="M3 3.5L14.5 0L16.5 0.5L19 3L21.5 5.5L22 7L21 22.5H3V3.5Z" fill="white"/>
<path d="M21.75 7H17.5C16.837 7 16.2011 6.73661 15.7322 6.26777C15.2634 5.79893 15 5.16304 15 4.5V0.25C15 0.183696 14.9737 0.120107 14.9268 0.0732233C14.8799 0.0263392 14.8163 0 14.75 0L4 0C3.46957 0 2.96086 0.210714 2.58579 0.585786C2.21071 0.960859 2 1.46957 2 2V22C2 22.5304 2.21071 23.0391 2.58579 23.4142C2.96086 23.7893 3.46957 24 4 24H20C20.5304 24 21.0391 23.7893 21.4142 23.4142C21.7893 23.0391 22 22.5304 22 22V7.25C22 7.1837 21.9737 7.12011 21.9268 7.07322C21.8799 7.02634 21.8163 7 21.75 7ZM8.42 19C8.57215 19.0193 8.71204 19.0934 8.81344 19.2085C8.91484 19.3235 8.97079 19.4716 8.97079 19.625C8.97079 19.7784 8.91484 19.9265 8.81344 20.0415C8.71204 20.1566 8.57215 20.2307 8.42 20.25C7.92794 20.2759 7.43577 20.2013 6.97347 20.0308C6.51118 19.8603 6.08843 19.5974 5.73099 19.2583C5.37355 18.9191 5.0889 18.5107 4.89438 18.058C4.69986 17.6053 4.59954 17.1177 4.59954 16.625C4.59954 16.1323 4.69986 15.6447 4.89438 15.192C5.0889 14.7393 5.37355 14.3309 5.73099 13.9917C6.08843 13.6526 6.51118 13.3897 6.97347 13.2192C7.43577 13.0487 7.92794 12.9741 8.42 13C8.57215 13.0193 8.71204 13.0934 8.81344 13.2085C8.91484 13.3235 8.97079 13.4716 8.97079 13.625C8.97079 13.7784 8.91484 13.9265 8.81344 14.0415C8.71204 14.1566 8.57215 14.2307 8.42 14.25C8.09515 14.2289 7.76943 14.2747 7.46297 14.3845C7.15652 14.4943 6.87585 14.6658 6.63832 14.8884C6.40079 15.111 6.21146 15.38 6.08203 15.6787C5.95259 15.9774 5.88581 16.2995 5.88581 16.625C5.88581 16.9505 5.95259 17.2726 6.08203 17.5713C6.21146 17.87 6.40079 18.139 6.63832 18.3616C6.87585 18.5842 7.15652 18.7557 7.46297 18.8655C7.76943 18.9753 8.09515 19.0211 8.42 19ZM11.35 15.49L13.19 16.72C13.532 16.9507 13.7911 17.2849 13.9293 17.6736C14.0674 18.0623 14.0774 18.4851 13.9577 18.8799C13.8381 19.2747 13.595 19.6207 13.2643 19.8673C12.9336 20.1139 12.5325 20.248 12.12 20.25H10.42C10.3313 20.2612 10.2412 20.2535 10.1557 20.2272C10.0702 20.2009 9.99134 20.1568 9.92426 20.0977C9.85717 20.0385 9.80343 19.9658 9.76663 19.8843C9.72982 19.8028 9.71078 19.7144 9.71078 19.625C9.71078 19.5356 9.72982 19.4472 9.76663 19.3657C9.80343 19.2842 9.85717 19.2115 9.92426 19.1523C9.99134 19.0932 10.0702 19.0491 10.1557 19.0228C10.2412 18.9965 10.3313 18.9888 10.42 19H12.12C12.2986 18.9974 12.469 18.9246 12.5944 18.7973C12.7198 18.6701 12.79 18.4986 12.79 18.32C12.7921 18.2088 12.7656 18.0989 12.7131 18.0009C12.6606 17.9028 12.5837 17.8199 12.49 17.76L10.65 16.53C10.308 16.2993 10.0489 15.9651 9.91074 15.5764C9.77257 15.1877 9.76259 14.7649 9.88226 14.3701C10.0019 13.9753 10.245 13.6293 10.5757 13.3827C10.9064 13.1361 11.3075 13.002 11.72 13H13.42C13.5721 13.0193 13.712 13.0934 13.8134 13.2085C13.9148 13.3235 13.9708 13.4716 13.9708 13.625C13.9708 13.7784 13.9148 13.9265 13.8134 14.0415C13.712 14.1566 13.5721 14.2307 13.42 14.25H11.72C11.5397 14.25 11.3667 14.3216 11.2392 14.4492C11.1116 14.5767 11.04 14.7497 11.04 14.93C11.0442 15.0397 11.0745 15.1469 11.1284 15.2425C11.1823 15.3382 11.2583 15.4196 11.35 15.48V15.49ZM16.35 15.49L18.19 16.72C18.532 16.9507 18.7911 17.2849 18.9293 17.6736C19.0674 18.0623 19.0774 18.4851 18.9577 18.8799C18.8381 19.2747 18.595 19.6207 18.2643 19.8673C17.9336 20.1139 17.5325 20.248 17.12 20.25H15.42C15.3313 20.2612 15.2412 20.2535 15.1557 20.2272C15.0702 20.2009 14.9913 20.1568 14.9243 20.0977C14.8572 20.0385 14.8034 19.9658 14.7666 19.8843C14.7298 19.8028 14.7108 19.7144 14.7108 19.625C14.7108 19.5356 14.7298 19.4472 14.7666 19.3657C14.8034 19.2842 14.8572 19.2115 14.9243 19.1523C14.9913 19.0932 15.0702 19.0491 15.1557 19.0228C15.2412 18.9965 15.3313 18.9888 15.42 19H17.12C17.2986 18.9974 17.469 18.9246 17.5944 18.7973C17.7198 18.6701 17.79 18.4986 17.79 18.32C17.7921 18.2088 17.7656 18.0989 17.7131 18.0009C17.6605 17.9028 17.5837 17.8199 17.49 17.76L15.65 16.53C15.308 16.2993 15.0489 15.9651 14.9107 15.5764C14.7726 15.1877 14.7626 14.7649 14.8823 14.3701C15.0019 13.9753 15.245 13.6293 15.5757 13.3827C15.9064 13.1361 16.3075 13.002 16.72 13H18.42C18.5721 13.0193 18.712 13.0934 18.8134 13.2085C18.9148 13.3235 18.9708 13.4716 18.9708 13.625C18.9708 13.7784 18.9148 13.9265 18.8134 14.0415C18.712 14.1566 18.5721 14.2307 18.42 14.25H16.72C16.5397 14.25 16.3667 14.3216 16.2392 14.4492C16.1116 14.5767 16.04 14.7497 16.04 14.93C16.0442 15.0397 16.0745 15.1469 16.1284 15.2425C16.1823 15.3382 16.2583 15.4196 16.35 15.48V15.49Z" fill="#254BDF"/>
<path d="M17.5 6.00005H21.4C21.4495 5.99936 21.4978 5.98397 21.5385 5.95583C21.5793 5.92768 21.6108 5.88806 21.629 5.84199C21.6472 5.79591 21.6514 5.74546 21.6408 5.69705C21.6303 5.64863 21.6057 5.60443 21.57 5.57005L16.43 0.430047C16.3956 0.39437 16.3514 0.369712 16.303 0.359204C16.2546 0.348695 16.2041 0.35281 16.1581 0.371026C16.112 0.389241 16.0724 0.420736 16.0442 0.461512C16.0161 0.502289 16.0007 0.550507 16 0.600047V4.50005C16 4.89787 16.158 5.2794 16.4393 5.56071C16.7206 5.84201 17.1022 6.00005 17.5 6.00005Z" fill="#254BDF"/>
</g>
<defs>
<clipPath id="clip0_1410_22">
<rect width="24" height="24" fill="white"/>
</clipPath>
</defs>
</svg>
