<svg width="24" height="24" viewBox="0 0 24 24" fill="none" xmlns="http://www.w3.org/2000/svg">
<path d="M11.4974 1.00001C8.76772 0.997753 6.12644 1.94976 4.0468 3.68545C1.96715 5.42114 0.585049 7.82708 0.148135 10.4722C-0.288778 13.1173 0.248049 15.8287 1.66243 18.1206C3.07681 20.4124 5.27631 22.135 7.86683 22.9796C8.43986 23.0771 8.6218 22.7466 8.6218 22.4489C8.6218 22.1789 8.62808 21.4316 8.6218 20.4883C5.4252 21.1678 4.76539 19.0019 4.76539 19.0019C4.5544 18.3201 4.10189 17.735 3.48967 17.3523C2.44714 16.6522 3.5681 16.6656 3.5681 16.6656C3.93214 16.7147 4.27993 16.8449 4.58493 17.0461C4.88992 17.2473 5.14406 17.5142 5.32795 17.8265C5.48356 18.1047 5.69378 18.3499 5.94648 18.5479C6.19917 18.7459 6.48932 18.8927 6.80017 18.9799C7.11101 19.0672 7.43639 19.0931 7.75749 19.0562C8.0786 19.0192 8.38906 18.9202 8.67095 18.7648C8.72368 18.1946 8.98215 17.6616 9.39978 17.262C6.8494 16.9756 4.16727 16.0096 4.16727 11.686C4.15106 10.5654 4.57494 9.48174 5.35096 8.65982C4.99936 7.6875 5.03938 6.62007 5.46285 5.67576C5.46285 5.67576 6.42904 5.37294 8.62076 6.83366C10.5041 6.32655 12.4917 6.32655 14.3751 6.83366C16.573 5.37396 17.5309 5.67576 17.5309 5.67576C17.9544 6.62015 17.9951 7.68771 17.6449 8.65982C18.4211 9.48229 18.8443 10.5669 18.8265 11.688C18.8265 16.023 16.1401 16.9745 13.5814 17.2517C13.8565 17.5229 14.069 17.8489 14.2047 18.2077C14.3404 18.5665 14.396 18.9497 14.3677 19.3314V22.453C14.3677 22.7548 14.5528 23.0884 15.1363 22.9786C17.7267 22.1332 19.9258 20.4098 21.3395 18.1174C22.7532 15.8249 23.2891 13.1131 22.8512 10.468C22.4132 7.82294 21.0301 5.41737 18.9496 3.68242C16.8691 1.94747 14.2272 0.996532 11.4974 1.00001Z" fill="black"/>
</svg>
