<svg width="24" height="24" viewBox="0 0 24 24" fill="none" xmlns="http://www.w3.org/2000/svg">
<path d="M3 4L14 1.5L18.3529 4L21 7.8V23H3V4Z" fill="white"/>
<path fill-rule="evenodd" clip-rule="evenodd" d="M3 0C2.44772 0 2 0.447715 2 1V23C2 23.5523 2.44772 24 3 24H21C21.5523 24 22 23.5523 22 23V6C22 5.73478 21.8946 5.48043 21.7071 5.29289L16.7071 0.292893C16.5196 0.105357 16.2652 0 16 0H3ZM15 7V2L20 7H15ZM3 13V19H4.5V16.75H5.5V19H7V13H5.5V15.25H4.5V13H3ZM9.25 14.5H8V13H12V14.5H10.75V19H9.25V14.5ZM13.3878 13.0385C13.6941 12.9365 14.0313 13.0418 14.225 13.3L15.125 14.5L16.025 13.3C16.2187 13.0418 16.5559 12.9365 16.8622 13.0385C17.1684 13.1406 17.375 13.4272 17.375 13.75V19H15.875V16L15.725 16.2C15.5834 16.3889 15.3611 16.5 15.125 16.5C14.8889 16.5 14.6666 16.3889 14.525 16.2L14.375 16V19H12.875V13.75C12.875 13.4272 13.0816 13.1406 13.3878 13.0385ZM18.25 13V18.25C18.25 18.6643 18.5858 19 19 19H21V17.5H19.75V13H18.25Z" fill="#DD4B25"/>
</svg>
