<svg width="24" height="24" viewBox="0 0 24 24" fill="none" xmlns="http://www.w3.org/2000/svg">
<g clip-path="url(#clip0_1410_15)">
<circle cx="12" cy="12" r="10" fill="white"/>
<path fill-rule="evenodd" clip-rule="evenodd" d="M4.136 6.235C5.04087 4.99893 6.22465 3.99383 7.5911 3.30139C8.95756 2.60896 10.4681 2.24873 12 2.25C14.4908 2.24664 16.8878 3.19993 18.696 4.913C18.299 4.953 17.944 5.07 17.64 5.265C17.2881 5.49189 17.0109 5.81745 16.843 6.201C16.535 6.89 16.576 7.687 16.8 8.27C16.999 8.785 17.203 9.164 17.393 9.481C17.469 9.609 17.533 9.713 17.593 9.808C17.692 9.967 17.773 10.096 17.854 10.254C18.061 10.648 18.239 11.159 18.25 12.38L16.985 16.173L14.055 7.75H14.5C14.6989 7.75 14.8897 7.67098 15.0303 7.53033C15.171 7.38968 15.25 7.19891 15.25 7C15.25 6.80109 15.171 6.61032 15.0303 6.46967C14.8897 6.32902 14.6989 6.25 14.5 6.25H13.011H13H10.5H10.489H9.5C9.30109 6.25 9.11032 6.32902 8.96967 6.46967C8.82902 6.61032 8.75 6.80109 8.75 7C8.75 7.19891 8.82902 7.38968 8.96967 7.53033C9.11032 7.67098 9.30109 7.75 9.5 7.75H9.982L11.368 11.402L9.602 16.46L6.562 7.75H7C7.19891 7.75 7.38968 7.67098 7.53033 7.53033C7.67098 7.38968 7.75 7.19891 7.75 7C7.75 6.80109 7.67098 6.61032 7.53033 6.46967C7.38968 6.32902 7.19891 6.25 7 6.25H5.648C5.59929 6.24011 5.54971 6.23508 5.5 6.235H4.136ZM2.788 8.8C2.43092 9.82906 2.24906 10.9107 2.25 12C2.24926 13.7195 2.70347 15.4086 3.56651 16.8958C4.42955 18.3831 5.67071 19.6155 7.164 20.468L2.788 8.798V8.8ZM9.46 21.416C10.288 21.6385 11.1417 21.7508 11.999 21.75C13.0535 21.751 14.1011 21.5808 15.101 21.246L12.194 13.583L9.46 21.416ZM17.208 20.243C18.5996 19.3645 19.7461 18.1477 20.5403 16.7063C21.3346 15.2649 21.7507 13.6458 21.75 12C21.7513 10.8142 21.5357 9.63823 21.114 8.53L17.21 20.242L17.208 20.243ZM12 0.75C5.787 0.75 0.75 5.787 0.75 12C0.75 18.213 5.787 23.25 12 23.25C18.213 23.25 23.25 18.213 23.25 12C23.25 5.787 18.213 0.75 12 0.75Z" fill="#0370A3"/>
</g>
<defs>
<clipPath id="clip0_1410_15">
<rect width="24" height="24" fill="white"/>
</clipPath>
</defs>
</svg>
