<svg width="24" height="24" viewBox="0 0 24 24" fill="none" xmlns="http://www.w3.org/2000/svg">
<path fill-rule="evenodd" clip-rule="evenodd" d="M7.71772 8.67653C5.88403 8.70473 4.40625 10.2 4.40625 12.0404C4.40625 13.8984 5.91247 15.4046 7.77048 15.4046H11.1347V8.67653H7.71772ZM17.155 8.67653C18.9741 8.72122 20.435 10.2099 20.435 12.0397C20.435 13.8977 18.9288 15.404 17.0708 15.404C15.2128 15.404 13.7065 13.8977 13.7065 12.0397C13.7065 10.2099 15.1675 8.72122 16.9866 8.67653H17.155ZM17.5358 0.306641C19.1369 0.306641 20.435 1.60467 20.435 3.20587C20.435 4.80708 19.1369 6.1051 17.5358 6.1051H17.1826C17.1454 6.10441 17.1081 6.10407 17.0708 6.10407C17.0334 6.10407 16.9961 6.10441 16.9589 6.1051H13.7065V0.306641H17.5358ZM4.40625 3.20587C4.40625 1.60467 5.70429 0.306641 7.30548 0.306641H11.1347V6.10471H7.77048C7.74708 6.10471 7.72372 6.10484 7.70039 6.1051H7.30548C5.70429 6.1051 4.40625 4.80708 4.40625 3.20587ZM7.30548 17.9774C5.70429 17.9774 4.40625 19.2755 4.40625 20.8766C4.40625 22.4779 5.70429 23.776 7.30548 23.776H7.77048C9.6285 23.776 11.1347 22.2696 11.1347 20.4117V17.9774H7.30548Z" fill="#9D56F7"/>
</svg>
