<svg width="24" height="24" viewBox="0 0 24 24" fill="none" xmlns="http://www.w3.org/2000/svg">
<path d="M3 2H17.5L20 6V22H3V2Z" fill="white"/>
<path fill-rule="evenodd" clip-rule="evenodd" d="M2 1C2 0.447715 2.44772 0 3 0H16C16.2652 0 16.5196 0.105357 16.7071 0.292893L21.7071 5.29289C21.8946 5.48043 22 5.73478 22 6V23C22 23.5523 21.5523 24 21 24H3C2.44772 24 2 23.5523 2 23V1ZM15 2V7H20L15 2ZM9.125 17.25V12H10.875V18.125C10.875 18.6082 10.4832 19 10 19H6.5C6.01675 19 5.625 18.6082 5.625 18.125V16.375H7.375V17.25H9.125ZM14 12C13.5168 12 13.125 12.3918 13.125 12.875V15.5C13.125 15.9832 13.5168 16.375 14 16.375H16.625V17.25H13.125V19H17.5C17.9832 19 18.375 18.6082 18.375 18.125V15.5C18.375 15.0168 17.9832 14.625 17.5 14.625H14.875V13.75H18.375V12H14Z" fill="#EFD81D"/>
</svg>
