<svg width="23" height="21" viewBox="0 0 23 21" fill="none" xmlns="http://www.w3.org/2000/svg">
<path d="M22 11.5042C23.5 18.5047 13.5 21.9955 8.55859 20.5C3 19.9955 0.0585938 16.199 0.0585938 11.5045C0.0585938 6.81011 3.86417 3.00453 8.55859 3.00453C14 1.50138 19 -0.999933 22 11.5042Z" fill="white"/>
<path d="M10.5948 0C4.74283 0 0 4.72038 0 10.5406C0 11.6879 0.18425 12.7932 0.526167 13.821L0.528 13.8146C0.648669 13.26 0.811071 12.7152 1.01383 12.1849L1.02392 12.1575C1.10183 11.9551 1.188 11.7544 1.27783 11.5556L1.35483 11.3906C1.42817 11.2346 1.50608 11.0805 1.58675 10.9282C1.61975 10.8662 1.65092 10.8042 1.68575 10.7431C1.70408 10.7084 1.72608 10.6765 1.74442 10.6427C1.83058 10.4913 1.91858 10.34 2.01025 10.1931L2.079 10.0892C2.19358 9.91133 2.31367 9.73715 2.43925 9.56661L2.47133 9.52101C2.60333 9.345 2.74175 9.17446 2.88475 9.00757L2.97642 8.89995C3.1185 8.73853 3.26517 8.58076 3.41733 8.42846L3.50808 8.34C3.66933 8.18117 3.83627 8.02816 4.00858 7.88128C4.68692 5.61958 6.76317 3.97347 9.22075 3.97347C10.2098 3.97347 11.1934 4.25618 12.0358 4.76962C12.9021 5.30127 13.6035 6.06101 14.0626 6.96474L14.069 6.97842L14.1057 7.04591V7.04865L14.1093 7.05047C14.6234 7.3663 15.1046 7.73228 15.5458 8.14301C15.5824 8.17676 15.62 8.20776 15.6558 8.24242C15.6576 8.24242 15.6613 8.24698 15.6622 8.24789L15.6603 8.24242L15.6594 8.23877V8.23604L15.6979 8.15943C16.0435 5.98528 17.0088 4.41851 18.1454 4.41851C19.0016 4.41851 19.7606 5.30769 20.2317 6.67656L20.2363 6.69115L20.2373 6.69298C20.3702 6.83707 20.5003 6.99484 20.6259 7.16811L20.6323 7.17723L20.6516 7.23834L20.6333 7.1672C19.2198 3.00039 15.2588 0.00182392 10.5939 0.00182392L10.5948 0ZM9.09975 4.0519C6.95383 4.09112 4.895 5.56122 4.19283 7.59765L4.18183 7.62866C4.56154 7.32561 4.96458 7.05269 5.38725 6.81244C7.95942 5.30222 11.3263 5.31134 13.8921 6.82704C13.0717 5.31954 11.4803 4.25618 9.76708 4.08747C9.54577 4.05991 9.32276 4.04803 9.09975 4.0519ZM18.1143 4.50789C17.9927 4.51081 17.8723 4.53139 17.7568 4.56899C16.5972 5.08152 16.181 6.45951 15.895 7.58124L15.8803 7.6469C16.2149 7.08148 16.621 6.53885 17.16 6.14944C17.9254 5.52291 19.0896 5.5521 19.833 6.19777C20.1153 6.49508 19.9623 6.20507 19.8614 5.99714C19.5479 5.31316 18.9218 4.48965 18.1143 4.50697V4.50789ZM11.3208 6.64008L10.34 9.62224L10.3382 9.6268L10.3327 9.62862L6.2095 10.6427H6.20125L10.2859 11.6341C10.3822 11.7344 10.494 11.821 10.6159 11.8894H10.6178C10.6563 11.9113 10.6957 11.9304 10.736 11.9487L10.7452 11.9532C10.7828 11.9697 10.8212 11.9833 10.8607 11.9961L10.8799 12.0034C10.9166 12.0153 10.9533 12.0244 10.9899 12.0326L11.0202 12.0399C11.1161 12.0591 11.2138 12.0692 11.3117 12.07C11.5916 12.0708 11.8654 11.9891 12.0987 11.8352C12.332 11.6813 12.5142 11.4622 12.6225 11.2054C12.6958 11.0358 12.7352 10.8498 12.7352 10.6546V10.6446L12.7343 10.6336C12.7334 10.5844 12.7307 10.536 12.7252 10.4877L12.7242 10.4859C12.7187 10.439 12.7108 10.3924 12.7004 10.3463L12.6995 10.3427C12.6791 10.2524 12.6496 10.1644 12.6115 10.08V10.0773C12.5361 9.90873 12.4276 9.75681 12.2925 9.63044V9.62771L11.3208 6.64008ZM14.2065 7.21098C14.2505 8.13025 14.2395 9.07688 14.1148 9.99888C13.959 11.8392 13.024 13.4626 12.3072 15.1205L12.2797 15.1935L12.2476 15.2719C13.6318 13.8839 15.1534 12.4995 15.8858 10.6373C16.2369 10.0572 15.994 9.41339 15.7804 8.8352C15.6246 8.0354 14.8005 7.6697 14.2065 7.21098ZM19.8642 7.73263L19.3252 10.184C19.3073 10.2439 19.2929 10.3048 19.2821 10.3664C19.2803 10.3846 19.2757 10.4029 19.2729 10.4211C19.2637 10.4882 19.2588 10.5559 19.2583 10.6236L19.2564 10.6519H19.2592C19.2592 11.2246 19.5314 11.6879 19.8669 11.6888C19.925 11.6881 19.9821 11.674 20.0338 11.6477L20.0585 11.6341C20.081 11.6215 20.1024 11.6071 20.1227 11.5912C20.1346 11.5821 20.1447 11.5711 20.1557 11.5611C20.2047 11.5163 20.247 11.4647 20.2813 11.4079L20.3088 11.3586C20.3262 11.3266 20.3421 11.2937 20.3564 11.2601L20.372 11.2237C20.3903 11.1753 20.4068 11.1252 20.4206 11.0723L20.4224 11.0705L20.4233 11.0677L20.7937 10.6564L20.4206 10.2406V10.2415L20.4023 10.184L19.8642 7.73263ZM15.8482 8.51328C16.4807 10.0782 16.6274 11.894 15.9317 13.4653C15.4825 14.7129 14.4769 15.7115 14.2138 17.0266C14.883 17.1314 15.5595 17.1871 16.2397 17.1962C18.2252 17.2226 20.2107 16.8131 22 15.9513C20.13 13.3349 18.2224 10.7029 15.8482 8.51328ZM11.3126 9.40427C11.4543 9.40427 11.5903 9.46029 11.6905 9.56C11.7907 9.65971 11.847 9.79494 11.847 9.93596C11.847 10.077 11.7907 10.2122 11.6905 10.3119C11.5903 10.4116 11.4543 10.4676 11.3126 10.4676C11.1708 10.4676 11.0349 10.4116 10.9347 10.3119C10.8345 10.2122 10.7782 10.077 10.7782 9.93596C10.7782 9.79494 10.8345 9.65971 10.9347 9.56C11.0349 9.46029 11.1708 9.40427 11.3126 9.40427ZM19.8853 9.7417C20.0118 9.7417 20.1135 9.91498 20.1135 10.1302C20.1135 10.3454 20.0118 10.5187 19.8853 10.5187C19.7597 10.5187 19.6579 10.3454 19.6579 10.1302C19.6579 9.91589 19.7588 9.7417 19.8853 9.7417ZM16.1783 9.90951C16.1636 10.0116 16.148 10.1001 16.1324 10.174L16.1269 10.195C16.1178 10.2406 16.1067 10.2807 16.0967 10.3117C15.6567 11.604 14.9279 12.6099 13.9333 13.6833C13.7986 13.8292 13.6574 13.9751 13.5126 14.1247C13.1525 14.4962 12.787 14.8625 12.4163 15.2236C12.3136 15.3239 12.1788 15.4616 12.0267 15.6212C11.9323 15.8829 11.825 16.1775 11.7352 16.4876C11.6948 16.473 11.6563 16.4593 11.6151 16.4429C9.68275 15.6996 8.38933 14.7065 8.38933 14.7065C8.38933 14.7065 9.38483 15.996 11.0614 17.2053C11.2237 17.3229 11.3832 17.4242 11.5399 17.5145C11.4712 18.6034 11.9542 19.6485 14.1341 19.9604C14.5075 20.0106 14.8858 20.0131 15.2597 19.9677L15.2506 19.9412C15.2496 19.9381 15.2484 19.935 15.2469 19.9321C15.2469 19.9321 15.0938 19.8108 14.8995 19.5883C14.6836 19.3418 14.5034 19.0664 14.3642 18.7702C14.248 18.5202 14.166 18.2558 14.1203 17.9841C14.0728 17.6907 14.0709 17.3917 14.1148 17.0977C14.1304 16.9882 14.1515 16.8779 14.1808 16.7639C14.2661 16.4228 14.4146 16.0599 14.6456 15.6768L14.6474 15.6741L14.8683 15.3057C15.8794 13.6094 16.5156 12.3189 16.2488 10.3436C16.2289 10.1983 16.206 10.0535 16.1783 9.90951ZM20.4692 10.6199L20.4719 10.6528V10.6619C20.4719 10.6737 20.4692 10.6847 20.4692 10.6965C20.4692 10.6838 20.4719 10.671 20.4719 10.6573C20.4719 10.6446 20.4701 10.6336 20.4692 10.6208V10.6199ZM20.4582 10.8707L20.4563 10.8808L20.4545 10.8935L20.4582 10.8707ZM21.6984 16.2769C19.3582 17.3147 16.7118 17.5902 14.1891 17.1953C14.0608 18.2057 14.5411 19.218 15.3019 19.8674L15.3129 19.8765C17.7907 19.4816 19.8733 17.8984 21.6984 16.2769Z" fill="#D80064"/>
</svg>
