<svg width="24" height="24" viewBox="0 0 24 24" fill="none" xmlns="http://www.w3.org/2000/svg">
<path d="M0.5 12C0.5 12.5909 0.797456 13.1761 1.37539 13.7221C1.95331 14.268 2.8004 14.7641 3.86827 15.182C4.93615 15.5998 6.2039 15.9313 7.59914 16.1575C8.99438 16.3836 10.4898 16.5 12 16.5C13.5102 16.5 15.0056 16.3836 16.4009 16.1575C17.7961 15.9313 19.0639 15.5998 20.1317 15.182C21.1996 14.7641 22.0467 14.268 22.6246 13.7221C23.2025 13.1761 23.5 12.5909 23.5 12C23.5 11.4091 23.2025 10.8239 22.6246 10.2779C22.0467 9.73196 21.1996 9.23588 20.1317 8.81802C19.0639 8.40016 17.7961 8.06869 16.4009 7.84254C15.0056 7.6164 13.5102 7.5 12 7.5C10.4898 7.5 8.99438 7.6164 7.59914 7.84254C6.2039 8.06869 4.93615 8.40016 3.86827 8.81802C2.8004 9.23588 1.95331 9.73196 1.37539 10.2779C0.797456 10.8239 0.5 11.4091 0.5 12Z" stroke="#5ED3F3" stroke-linecap="round" stroke-linejoin="round"/>
<path d="M6.25092 21.9586C6.76269 22.2541 7.41818 22.2891 8.17997 22.0616C8.94175 21.8341 9.79491 21.3485 10.6907 20.6326C11.5865 19.9168 12.5075 18.9846 13.401 17.8893C14.2944 16.7941 15.1429 15.5572 15.898 14.2494C16.6531 12.9415 17.3 11.5882 17.8018 10.2668C18.3036 8.94544 18.6504 7.6818 18.8225 6.54806C18.9945 5.41432 18.9884 4.43269 18.8046 3.6592C18.6207 2.88572 18.2627 2.33554 17.7509 2.04006C17.2391 1.74459 16.5836 1.70961 15.8219 1.93713C15.0601 2.16464 14.2069 2.6502 13.3111 3.36607C12.4153 4.08195 11.4943 5.01412 10.6009 6.10936C9.70741 7.20461 8.8589 8.44148 8.1038 9.74935C7.34869 11.0572 6.70179 12.4105 6.20001 13.7319C5.69824 15.0533 5.35142 16.3169 5.17937 17.4507C5.00731 18.5844 5.01339 19.566 5.19724 20.3395C5.3811 21.113 5.73914 21.6632 6.25092 21.9586Z" stroke="#5ED3F3" stroke-linecap="round" stroke-linejoin="round"/>
<path d="M8.10381 14.2494C8.85892 15.5573 9.70742 16.7941 10.6009 17.8894C11.4944 18.9846 12.4153 19.9168 13.3111 20.6327C14.2069 21.3486 15.0601 21.8341 15.8219 22.0616C16.5837 22.2892 17.2392 22.2542 17.7509 21.9587C18.2627 21.6632 18.6208 21.113 18.8046 20.3396C18.9885 19.5661 18.9945 18.5844 18.8225 17.4507C18.6504 16.317 18.3036 15.0533 17.8018 13.7319C17.3001 12.4105 16.6531 11.0573 15.898 9.74939C15.1429 8.44151 14.2944 7.20464 13.401 6.10939C12.5075 5.01414 11.5866 4.08196 10.6907 3.36609C9.79491 2.65021 8.94175 2.16465 8.17997 1.93713C7.41818 1.70961 6.76269 1.74458 6.25091 2.04006C5.73913 2.33553 5.38109 2.88572 5.19724 3.65921C5.01339 4.43269 5.00731 5.41433 5.17937 6.54807C5.35143 7.68182 5.69825 8.94546 6.20003 10.2669C6.7018 11.5882 7.34871 12.9415 8.10381 14.2494Z" stroke="#5ED3F3" stroke-linecap="round" stroke-linejoin="round"/>
<path d="M10.5 12C10.5 12.3978 10.658 12.7794 10.9393 13.0607C11.2206 13.342 11.6022 13.5 12 13.5C12.3978 13.5 12.7794 13.342 13.0607 13.0607C13.342 12.7794 13.5 12.3978 13.5 12C13.5 11.6022 13.342 11.2206 13.0607 10.9393C12.7794 10.658 12.3978 10.5 12 10.5C11.6022 10.5 11.2206 10.658 10.9393 10.9393C10.658 11.2206 10.5 11.6022 10.5 12Z" stroke="#5ED3F3" stroke-linecap="round" stroke-linejoin="round"/>
</svg>
