<svg width="24" height="24" viewBox="0 0 24 24" fill="none" xmlns="http://www.w3.org/2000/svg">
<g clip-path="url(#clip0_1410_26)">
<path d="M6.3104 16.5405C6.31041 16.9879 6.44321 17.4252 6.69199 17.7971C6.94076 18.169 7.29432 18.4586 7.70786 18.6294C8.12141 18.8001 8.57633 18.8443 9.015 18.7563C9.45367 18.6683 9.85634 18.452 10.172 18.135C10.4877 17.8179 10.7021 17.4143 10.7882 16.9752C10.8743 16.5362 10.8281 16.0814 10.6555 15.6687C10.4829 15.2559 10.1917 14.9036 9.8187 14.6565C9.44574 14.4094 9.00781 14.2785 8.5604 14.2805C8.44396 14.2702 8.32685 14.2702 8.2104 14.2805C7.3925 12.8982 6.97367 11.3163 7.0004 9.71047C7.0004 5.82047 9.2204 2.65047 12.0004 2.65047C14.0904 2.65047 15.9404 4.47047 16.7004 7.18047C17.313 7.35451 17.9114 7.57515 18.4904 7.84047C18.5721 7.72786 18.6295 7.59944 18.6588 7.46341C18.688 7.32737 18.6886 7.18673 18.6604 7.05047C17.7704 3.27047 15.0904 0.730469 12.0004 0.730469C8.1504 0.730469 5.0004 4.73047 5.0004 9.73047C4.98294 11.7423 5.5341 13.7182 6.5904 15.4305C6.40541 15.7711 6.30912 16.1528 6.3104 16.5405Z" fill="#7248B6"/>
<path d="M19.0007 9.68953C17.3822 8.73188 15.5412 8.21473 13.6607 8.18953H13.2707C13.0752 7.84557 12.7923 7.55928 12.4507 7.35953C11.932 7.06235 11.3166 6.98284 10.7393 7.1384C10.1621 7.29396 9.66995 7.67192 9.37075 8.18953C9.17196 8.5318 9.06698 8.92046 9.06641 9.31628C9.06584 9.71209 9.16969 10.1011 9.36749 10.4439C9.56529 10.7868 9.85003 11.0714 10.193 11.269C10.5359 11.4666 10.9249 11.5703 11.3207 11.5695C11.7249 11.5782 12.1239 11.4778 12.4758 11.279C12.8278 11.0801 13.1196 10.7902 13.3207 10.4395C13.3841 10.3312 13.4376 10.2174 13.4807 10.0995H13.6907C15.2103 10.143 16.6937 10.5732 18.0007 11.3495C21.3707 13.3495 23.0007 16.8395 21.5807 19.2595C21.1224 19.9521 20.4883 20.5106 19.7433 20.8778C18.9984 21.245 18.1692 21.4078 17.3407 21.3495C16.6647 21.3348 15.9931 21.2374 15.3407 21.0595C14.8864 21.5034 14.3983 21.9113 13.8807 22.2795C13.9331 22.4103 14.0143 22.5276 14.1181 22.6228C14.222 22.718 14.3459 22.7887 14.4807 22.8295C15.4183 23.1128 16.3914 23.261 17.3707 23.2695C18.538 23.3319 19.7007 23.0822 20.7394 22.5462C21.7782 22.0101 22.6553 21.207 23.2807 20.2195C25.1807 16.8895 23.2507 12.1595 19.0007 9.68953Z" fill="#7248B6"/>
<path d="M16.1599 17.5502C16.5535 17.5537 16.9407 17.45 17.2799 17.2502C17.536 17.1005 17.76 16.9019 17.9393 16.6656C18.1186 16.4292 18.2496 16.1599 18.3248 15.873C18.4001 15.5861 18.418 15.2871 18.3777 14.9933C18.3374 14.6994 18.2396 14.4163 18.0899 14.1602C17.9402 13.9042 17.7415 13.6801 17.5052 13.5008C17.2689 13.3215 16.9996 13.1905 16.7126 13.1153C16.4257 13.0401 16.1268 13.0221 15.8329 13.0624C15.539 13.1027 15.256 13.2005 14.9999 13.3502C14.7508 13.5011 14.5342 13.6998 14.3625 13.935C14.1909 14.1702 14.0676 14.4371 13.9999 14.7202C13.9212 15.0056 13.9002 15.3038 13.9379 15.5974C13.9757 15.891 14.0716 16.1741 14.2199 16.4302C14.2846 16.5269 14.3583 16.6173 14.4399 16.7002C13.6553 18.1255 12.4881 19.3031 11.0699 20.1002C9.74046 20.8923 8.22713 21.3232 6.67988 21.3502C5.85001 21.4082 5.01959 21.2454 4.27308 20.8783C3.52657 20.5112 2.89061 19.9529 2.42988 19.2602C1.42988 17.4402 2.02988 14.9202 4.00988 12.9102C3.84989 12.3002 3.73953 11.6781 3.67988 11.0502C3.64335 11.0458 3.60641 11.0458 3.56988 11.0502C3.44752 11.0496 3.32623 11.0731 3.21298 11.1195C3.09972 11.1658 2.99672 11.234 2.90988 11.3202C0.0798819 14.0002 -0.780118 17.5502 0.759882 20.2202C1.397 21.2002 2.28221 21.9939 3.32553 22.5209C4.36885 23.0478 5.53308 23.2891 6.69988 23.2202C8.56252 23.2056 10.3892 22.7058 11.9999 21.7702C13.7548 20.7815 15.1964 19.3192 16.1599 17.5502Z" fill="#7248B6"/>
</g>
<defs>
<clipPath id="clip0_1410_26">
<rect width="24" height="24" fill="white"/>
</clipPath>
</defs>
</svg>
