<svg width="41" height="41" viewBox="0 0 41 41" fill="none" xmlns="http://www.w3.org/2000/svg">
<circle cx="20.626" cy="20.624" r="20.376" fill="#6D9A00"/>
<path d="M37.3626 20.5056V21.9877C36.242 21.9877 35.4595 22.2198 35.0152 22.684C34.5709 23.1482 34.3487 23.9107 34.3487 24.9718V27.8365C34.3487 28.851 34.2327 29.7032 34.0006 30.3928C33.7751 31.0891 33.427 31.6461 32.9562 32.0639C32.4853 32.4817 31.8885 32.7834 31.1657 32.9691C30.4429 33.1547 29.5908 33.2476 28.6094 33.2476V30.8902C29.3786 30.8902 29.9787 30.7741 30.4098 30.542C30.8408 30.3165 31.1392 29.9651 31.305 29.4876C31.4774 29.0168 31.5636 28.4167 31.5636 27.6873V24.0666C31.5636 23.556 31.6399 23.0852 31.7924 22.6541C31.9449 22.2165 32.2267 21.8385 32.6379 21.5202C33.049 21.1952 33.6359 20.9466 34.3985 20.7742C35.1611 20.5951 36.1491 20.5056 37.3626 20.5056ZM28.6094 7.87305C29.5908 7.87305 30.4429 7.96588 31.1657 8.15156C31.8885 8.33724 32.4853 8.63896 32.9562 9.05673C33.427 9.4745 33.7751 10.0315 34.0006 10.7278C34.2327 11.4175 34.3487 12.2696 34.3487 13.2842V16.1389C34.3487 17.2065 34.5709 17.9725 35.0152 18.4366C35.4595 18.8942 36.242 19.123 37.3626 19.123V20.615C36.1491 20.615 35.1611 20.5255 34.3985 20.3464C33.6359 20.1674 33.049 19.9187 32.6379 19.6004C32.2267 19.2821 31.9449 18.9075 31.7924 18.4764C31.6399 18.0388 31.5636 17.5646 31.5636 17.054V13.4334C31.5636 12.6973 31.4774 12.0938 31.305 11.623C31.1392 11.1456 30.8408 10.7941 30.4098 10.5687C29.9787 10.3432 29.3786 10.2305 28.6094 10.2305V7.87305ZM37.3626 19.123V21.9877H34.6073V19.123H37.3626Z" fill="white"/>
<path d="M4.0625 20.615V19.123C5.18318 19.123 5.96567 18.8942 6.40997 18.4366C6.85426 17.9725 7.07641 17.2065 7.07641 16.1389V13.2842C7.07641 12.2696 7.18914 11.4175 7.4146 10.7278C7.6467 10.0315 7.99815 9.4745 8.46897 9.05673C8.93979 8.63896 9.5366 8.33724 10.2594 8.15156C10.9822 7.96588 11.8343 7.87305 12.8158 7.87305V10.2305C12.0465 10.2305 11.4464 10.3432 11.0154 10.5687C10.5843 10.7941 10.2826 11.1456 10.1102 11.623C9.94443 12.0938 9.86154 12.6973 9.86154 13.4334V17.054C9.86154 17.5646 9.78528 18.0388 9.63276 18.4764C9.48024 18.9075 9.19841 19.2821 8.78727 19.6004C8.37613 19.9187 7.78927 20.1674 7.02667 20.3464C6.26408 20.5255 5.27602 20.615 4.0625 20.615ZM12.8158 33.2476C11.8343 33.2476 10.9822 33.1547 10.2594 32.9691C9.5366 32.7834 8.93979 32.4817 8.46897 32.0639C7.99815 31.6461 7.6467 31.0891 7.4146 30.3928C7.18914 29.7032 7.07641 28.851 7.07641 27.8365V24.9718C7.07641 23.9107 6.85426 23.1482 6.40997 22.684C5.96567 22.2198 5.18318 21.9877 4.0625 21.9877V20.5056C5.27602 20.5056 6.26408 20.5951 7.02667 20.7742C7.78927 20.9466 8.37613 21.1952 8.78727 21.5202C9.19841 21.8385 9.48024 22.2165 9.63276 22.6541C9.78528 23.0852 9.86154 23.556 9.86154 24.0666V27.6873C9.86154 28.4167 9.94443 29.0168 10.1102 29.4876C10.2826 29.9651 10.5843 30.3165 11.0154 30.542C11.4464 30.7741 12.0465 30.8902 12.8158 30.8902V33.2476ZM4.0625 21.9877V19.123H6.81779V21.9877H4.0625Z" fill="white"/>
<path d="M27.2832 22.144C26.83 22.144 26.4403 21.9837 26.1142 21.6632C25.7881 21.337 25.625 20.9446 25.625 20.4858C25.625 20.0326 25.7881 19.6457 26.1142 19.3251C26.4403 18.999 26.83 18.8359 27.2832 18.8359C27.7364 18.8359 28.1261 18.999 28.4522 19.3251C28.7783 19.6457 28.9414 20.0326 28.9414 20.4858C28.9414 20.7898 28.864 21.069 28.7092 21.3232C28.56 21.572 28.361 21.7709 28.1123 21.9202C27.8636 22.0694 27.5872 22.144 27.2832 22.144Z" fill="white"/>
<path d="M20.6738 22.144C20.2206 22.144 19.8309 21.9837 19.5048 21.6632C19.1787 21.337 19.0156 20.9446 19.0156 20.4858C19.0156 20.0326 19.1787 19.6457 19.5048 19.3251C19.8309 18.999 20.2206 18.8359 20.6738 18.8359C21.1271 18.8359 21.5167 18.999 21.8428 19.3251C22.169 19.6457 22.332 20.0326 22.332 20.4858C22.332 20.7898 22.2546 21.069 22.0999 21.3232C21.9506 21.572 21.7516 21.7709 21.5029 21.9202C21.2542 22.0694 20.9778 22.144 20.6738 22.144Z" fill="white"/>
<path d="M14.0605 22.144C13.6073 22.144 13.2176 21.9837 12.8915 21.6632C12.5654 21.337 12.4023 20.9446 12.4023 20.4858C12.4023 20.0326 12.5654 19.6457 12.8915 19.3251C13.2176 18.999 13.6073 18.8359 14.0605 18.8359C14.5138 18.8359 14.9034 18.999 15.2296 19.3251C15.5557 19.6457 15.7187 20.0326 15.7187 20.4858C15.7187 20.7898 15.6413 21.069 15.4866 21.3232C15.3373 21.572 15.1384 21.7709 14.8896 21.9202C14.6409 22.0694 14.3645 22.144 14.0605 22.144Z" fill="white"/>
</svg>
