<svg width="48" height="28" viewBox="0 0 48 28" fill="none" xmlns="http://www.w3.org/2000/svg">
<path d="M12.9152 9.72796C12.2085 11.9874 11.0777 13.6247 9.80565 14.9345V3.44081C9.80565 2.65491 9.0636 2 7.89752 2C7.40282 2 6.9788 2.22922 6.9788 2.55668C6.9788 2.78589 7.12014 2.98237 7.12014 3.60453V8.87657C6.69611 11.1688 5.63604 13.2972 4.22261 13.2972C3.19788 13.2972 2.59717 12.3476 2.59717 10.5793C2.59717 7.82872 2.98587 6.38791 3.62191 3.96474C3.76325 3.47355 4.78798 2.16373 3.05654 2.16373C1.18374 2.16373 1.43109 2.81864 1.18374 3.37532C1.18374 3.37532 0 7.27204 0 10.7431C0 13.5919 1.28975 15.4584 3.65724 15.4584C5.17668 15.4584 6.27208 14.5088 7.12014 13.199V17.3577C4.78798 19.2569 2.73852 20.927 2.73852 24.2343C2.73852 26.33 4.15194 28 6.13074 28C7.93286 28 9.80565 26.7884 9.80565 23.3501V17.6851C11.7138 16.1461 13.7632 14.2141 14.9647 10.4156C15 10.2846 15 10.1209 15 10.0882C15 9.466 14.3286 8.74559 13.7633 8.74559C13.4099 8.74559 13.1272 9.0403 12.9152 9.72796ZM6.13074 25.937C5.56537 25.937 5.21201 25.1511 5.21201 24.136C5.21201 22.1713 5.9894 20.927 7.12014 19.8463V23.3501C7.12014 23.9723 7.26148 25.937 6.13074 25.937Z" fill="#2C8EBB"/>
<path d="M21.8592 12.8C21.0704 12.8 20.7418 12 20.7418 11.2667V5.76667C20.7418 4.96667 20.0516 4.3 18.9671 4.3C18.507 4.3 18.1127 4.53333 18.1127 4.86667C18.1127 5.1 18.2441 5.3 18.2441 5.93333V11.0667C17.8826 12 17.2911 12.8 16.4038 12.8C15.2535 12.8 14.5305 11.8 14.5305 10.0667C14.5305 5.26667 17.4554 3.1 19.9531 3.1C20.2817 3.1 20.6103 3.16667 20.9061 3.16667C21.2347 3.16667 21.3333 2.96667 21.3333 2.4C21.3333 1.53333 20.7089 1 19.8216 1C15.8122 1 12 4.4 12 9.96667C12 12.8 13.3474 15 15.9108 15C17.1596 15 18.0798 14.4 18.7371 13.6333C19.23 14.4333 20.1174 15 21.2676 15C24.0939 15 25.4085 12 25.9671 9.8C26 9.66667 26 9.6 26 9.56667C26 8.93334 25.3756 8.2 24.8498 8.2C24.5211 8.2 24.1925 8.5 24.061 9.2C23.7653 10.6667 23.1737 12.8 21.8592 12.8Z" fill="#2C8EBB"/>
<path d="M31.2245 15C34.0765 15 35.3699 12.0842 35.9668 9.946C35.9668 9.88121 36 9.81642 36 9.71922C36 9.10367 35.3699 8.39093 34.8393 8.39093C34.5077 8.39093 34.176 8.6825 34.0434 9.36285C33.7449 10.7883 33.1811 12.8618 31.6556 12.8618C30.7602 12.8618 30.3291 12.0194 30.3291 11.1123C30.3291 7.87257 31.8214 4.04968 31.8214 3.66091C31.9541 2.91577 30.6276 1.84665 30.2296 1.84665H28.5051C28.1735 1.84665 27.8418 1.84665 26.7475 1.71706C26.3827 0.388769 25.4541 0 24.6582 0C23.7959 0 23 0.583154 23 1.49028C23 2.42981 23.5969 3.11015 24.426 3.56371C24.3929 5.21598 24.2602 7.90497 23.8954 9.20086C23.5969 10.3024 25.3214 11.4687 25.7526 10.108C26.3495 8.22894 26.5485 5.41037 26.5816 4.14687H29.4668C28.4056 6.93305 27.8087 9.23326 27.8087 11.3067C27.8087 14.1577 29.6658 15 31.2245 15Z" fill="#2C8EBB"/>
<path d="M34.1304 13.5333C34.1304 14.7667 35.0431 15 35.695 15C36.6403 15 36.6077 14.2 36.6077 13.5667V8.7C36.8359 6.06667 38.8568 3.2 39.8021 3.2C40.4214 3.2 40.4866 4.06667 40.4866 5.1V11.8667C40.4866 13.5667 41.4971 15 43.2247 15C46.0279 15 47.4133 12 47.9674 9.8C48 9.66667 48 9.6 48 9.56667C48 8.93334 47.3807 8.2 46.8591 8.2C46.5332 8.2 46.2072 8.5 46.0768 9.2C45.7835 10.6667 45.1152 12.8 43.8114 12.8C42.9639 12.8 42.9639 11.5667 42.9639 11.2667V4.36667C42.9639 2.83333 42.4424 1 40.2584 1C38.6612 1 37.4878 2.43333 36.6077 4.3V2.8C36.6077 2 35.9232 1.33333 34.8475 1.33333C34.3912 1.33333 34 1.56667 34 1.9C34 2.13333 34.1304 2.33333 34.1304 2.96667V13.5333Z" fill="#2C8EBB"/>
</svg>
