<svg xmlns="http://www.w3.org/2000/svg" viewBox="0 0 346 313"><defs><style>.cls-1{fill:#ef3d5b;}.cls-2{fill:#61bfd3;}</style></defs><title>logofixx</title><g id="red"><path class="cls-1" d="M71.4,124.44,70,243.93l51.86-59,7.19,8.63L148.58,217l-.3.33L77.42,303.52H28c0-2.17,0-4.35,0-6.53v0Q28,151.86,28,6.74h0L66.5,7s18.75.17,18.82.23c3.59,3.62,21.88,26.39,21.88,26.39l70.66,88.84L272,6.74h52.77L177.48,183,72.81,58.44a.35.35,0,0,0-.61.24Z"/><path class="cls-2" d="M324.74,74.18V303.52H282.1q.09-58.31.19-116.6l-98,116.61H135l147.3-179.35Z"/></g></svg>